<svg id="Layer_1" data-name="Layer 1" xmlns="http://www.w3.org/2000/svg" viewBox="0 0 28 28"><defs><style>.cls-1{fill:#9943fc;}</style></defs><title>callender</title><polygon class="cls-1" points="25 5 25 9 3 9 3 5 7 5 7 3 9 3 9 5 19 5 19 3 21 3 21 5 25 5"/><path class="cls-1" d="M3,11V25H25V11Zm7.7,11A3.4,3.4,0,0,1,8,20.93l.87-1.19a2.46,2.46,0,0,0,1.64.76c.73,0,1.21-.29,1.21-.84s-.36-1-2-1V17.29c1.35,0,1.77-.4,1.77-1s-.31-.8-.9-.8a2.08,2.08,0,0,0-1.41.66L8.21,15a3.75,3.75,0,0,1,2.45-1c1.63,0,2.7.78,2.7,2.13a1.81,1.81,0,0,1-1.26,1.7v.05a1.9,1.9,0,0,1,1.51,1.86C13.61,21.22,12.27,22,10.7,22Zm9.3-.15H15V20.35H16.7V16.08H15.25V14.91a5.5,5.5,0,0,0,1.94-.72h1.39v6.16H20Z"/></svg>