<svg id="Layer_1" data-name="Layer 1" xmlns="http://www.w3.org/2000/svg" viewBox="0 0 28 28"><defs><style>.cls-1{fill:#9943fc;}</style></defs><title>coupon</title><circle class="cls-1" cx="10" cy="11" r="1"/><path class="cls-1" d="M24.36,14l1.46-2.08-2.09-1.47L24.39,8l-2.46-.66-.22-2.53L19.18,5,18.1,2.72,15.8,3.8,14,2,12.2,3.8,9.9,2.72,8.82,5,6.29,4.81,6.07,7.34,3.61,8l.66,2.45L2.18,11.92,3.64,14,2.18,16.08l2.09,1.47L3.61,20l2.46.66.22,2.53L8.82,23,9.9,25.28l2.3-1.08L14,26l1.8-1.8,2.3,1.08L19.18,23l2.53.22.22-2.53L24.39,20l-.66-2.45,2.09-1.47ZM7,11a3,3,0,1,1,3,3A3,3,0,0,1,7,11Zm4,8H8L17,9h3Zm7,1a3,3,0,1,1,3-3A3,3,0,0,1,18,20Zm0-4a1,1,0,1,0,1,1A1,1,0,0,0,18,16Z"/></svg>