<svg id="Layer_1" data-name="Layer 1" xmlns="http://www.w3.org/2000/svg" viewBox="0 0 28 28"><defs><style>.cls-1{fill:#9943fc;}</style></defs><title>filter</title><polygon class="cls-1" points="21 12.5 25 12.5 25 15.5 21 15.5 21 17.5 18 17.5 18 10.5 21 10.5 21 12.5"/><polygon class="cls-1" points="10 18 13 18 13 25 10 25 10 23 3 23 3 20 10 20 10 18"/><rect class="cls-1" x="12" y="5" width="13" height="3"/><rect class="cls-1" x="15" y="20" width="10" height="3"/><polygon class="cls-1" points="7 8 3 8 3 5 7 5 7 3 10 3 10 10 7 10 7 8"/><rect class="cls-1" x="3" y="12.5" width="13" height="3"/></svg>