<svg id="Layer_1" data-name="Layer 1" xmlns="http://www.w3.org/2000/svg" viewBox="0 0 28 28"><defs><style>.cls-1{fill:#9943fc;}</style></defs><title>heart</title><path class="cls-1" d="M26,10a2.71,2.71,0,0,1,0,.29,1.55,1.55,0,0,1,0,.22,1.24,1.24,0,0,1,0,.27C25.25,18.7,14,25,14,25S2.75,18.7,2.05,10.78a1.24,1.24,0,0,1,0-.27,1.55,1.55,0,0,1,0-.22A2.71,2.71,0,0,1,2,10q0-.36,0-.72c0-.25.07-.49.11-.72A6,6,0,0,1,7.69,3.07,6,6,0,0,1,8.55,3a4.16,4.16,0,0,1,.54,0A6.48,6.48,0,0,1,14,6.82,6.48,6.48,0,0,1,18.91,3a4.16,4.16,0,0,1,.54,0,6,6,0,0,1,.86.07,6,6,0,0,1,5.55,5.49c0,.23.09.47.11.72S26,9.76,26,10Z"/></svg>