<svg id="Layer_1" data-name="Layer 1" xmlns="http://www.w3.org/2000/svg" viewBox="0 0 28 28"><defs><style>.cls-1{fill:#9943fc;}</style></defs><title>marketing</title><path class="cls-1" d="M21,4V22H17a4,4,0,0,0-.08-.85,4.57,4.57,0,0,0-.39-1.27l-.13-.26A5,5,0,0,0,12,17v7H8V9h4a5,5,0,0,0,4.4-2.62l.13-.26a4.57,4.57,0,0,0,.39-1.27A4,4,0,0,0,17,4Z"/><path class="cls-1" d="M16.92,21.15a6.17,6.17,0,0,0-.39-1.27A4.57,4.57,0,0,1,16.92,21.15Z"/><path class="cls-1" d="M16.92,4.85a4.57,4.57,0,0,1-.39,1.27A6.17,6.17,0,0,0,16.92,4.85Z"/><path class="cls-1" d="M26,13a3,3,0,0,1-3,3V10A3,3,0,0,1,26,13Z"/><path class="cls-1" d="M6,9v8H4a2,2,0,0,1-2-2V11A2,2,0,0,1,4,9Z"/></svg>