<svg id="Layer_1" data-name="Layer 1" xmlns="http://www.w3.org/2000/svg" viewBox="0 0 28 28"><defs><style>.cls-1{fill:#9943fc;}</style></defs><title>ticket</title><circle class="cls-1" cx="10" cy="11" r="1"/><path class="cls-1" d="M26,7V5H2V7A1,1,0,0,1,2,9v2a1,1,0,0,1,0,2v2a1,1,0,0,1,0,2v2a1,1,0,0,1,0,2v2H26V21a1,1,0,0,1,0-2V17a1,1,0,0,1,0-2V13a1,1,0,0,1,0-2V9a1,1,0,0,1,0-2ZM7,11a3,3,0,1,1,3,3A3,3,0,0,1,7,11Zm1,8L17,9h3L11,19Zm10,1a3,3,0,1,1,3-3A3,3,0,0,1,18,20Zm0-4a1,1,0,1,0,1,1A1,1,0,0,0,18,16Z"/></svg>